<svg xmlns="http://www.w3.org/2000/svg" xmlns:xlink="http://www.w3.org/1999/xlink" width="101.761" height="70.411" viewBox="0 0 101.761 70.411">
  <defs>
    <linearGradient id="linear-gradient" x1="0.505" y1="1.007" x2="0.505" gradientUnits="objectBoundingBox">
      <stop offset="0" stop-color="gray" stop-opacity="0.251"/>
      <stop offset="0.54" stop-color="gray" stop-opacity="0.122"/>
      <stop offset="1" stop-color="gray" stop-opacity="0.102"/>
    </linearGradient>
  </defs>
  <g id="undraw_order_confirmed_1m3v" transform="translate(0.004 -7.998)">
    <path id="Path_1043" data-name="Path 1043" d="M154.35,41.407c-6.524-.227-12.737-2.332-18.67-4.637s-11.81-4.858-18.177-6.078c-4.1-.785-8.78-.9-12.079,1.3-3.176,2.117-4.2,5.761-4.754,9.146-.415,2.546-.659,5.226.478,7.609.79,1.655,2.191,3.046,3.161,4.632,3.374,5.516.989,12.318-2.666,17.7a67.273,67.273,0,0,0-5.028,7.626c-1.324,2.687-1.935,5.771-.777,8.515,1.147,2.722,3.882,4.762,6.844,6.2,6.017,2.918,13.1,3.753,20.02,4.225,15.3,1.047,30.689.594,46.034.14A135.163,135.163,0,0,0,185.7,96.57c3.1-.488,6.3-1.261,8.558-3.13a7.167,7.167,0,0,0,1.651-9.362c-3.214-4.989-12.1-6.227-14.345-11.581-1.236-2.947.033-6.229,1.831-8.963,3.855-5.862,10.315-11.006,10.654-17.707.234-4.6-2.872-9.212-7.674-11.39-5.033-2.282-12.013-2-15.725,1.783C166.83,40.11,160.111,41.607,154.35,41.407Z" transform="translate(-95.23 -22.18)" fill="#fff" opacity="0.1"/>
    <path id="Path_1045" data-name="Path 1045" d="M777.907,156.831s-8.487-.512-7.487,5.435a1.445,1.445,0,0,0,.754,1.528s.015-.44.871-.29a3.981,3.981,0,0,0,.922.044,1.921,1.921,0,0,0,1.127-.461h0s2.386-.986,3.313-4.885c0,0,.686-.851.659-1.069l-1.432.612a2.554,2.554,0,0,1,.1,1.892s-.046-1.855-.322-1.814c-.055.008-.744.358-.744.358a4.234,4.234,0,0,1,.207,3.108s.241-2.218-.47-2.978l-1.008.589a4.451,4.451,0,0,1,.317,3.376s.171-2.326-.529-3.233l-.913.713s.924,1.832.361,3.089c0,0-.074-2.707-.558-2.912a5.614,5.614,0,0,0-.921.994s.633,1.331.24,2.032c0,0-.241-1.8-.439-1.814a5.99,5.99,0,0,0-.879,2.016,4.344,4.344,0,0,1,.686-2.129,2.4,2.4,0,0,0-1.22.631s.124-.845,1.416-.919a5.545,5.545,0,0,1,.834-.962,5.225,5.225,0,0,0-2.063.238,2.317,2.317,0,0,1,2.3-.434l.9-.737a7.466,7.466,0,0,0-2.409.024,2.929,2.929,0,0,1,2.652-.192l.982-.587a9.006,9.006,0,0,0-2.3-.2,3.529,3.529,0,0,1,2.59.041l.706-.316s-1.056-.208-1.366-.241-.326-.118-.326-.118a3.664,3.664,0,0,1,1.985.221A8.936,8.936,0,0,0,777.907,156.831Z" transform="translate(-703.291 -125.057)" fill="#fff"/>
    <path id="Path_1046" data-name="Path 1046" d="M728.558,130.646s-3.83-.231-3.383,2.456a.656.656,0,0,0,.341.69s.007-.2.394-.132a1.764,1.764,0,0,0,.416.02.863.863,0,0,0,.509-.21h0a3.043,3.043,0,0,0,1.5-2.208s.309-.384.3-.483l-.647.276a1.163,1.163,0,0,1,.047.855s-.021-.838-.145-.818c-.025,0-.337.162-.337.162a1.911,1.911,0,0,1,.094,1.4s.109-1-.213-1.346l-.456.27a2.011,2.011,0,0,1,.143,1.525,2.858,2.858,0,0,0-.239-1.461l-.412.323a1.97,1.97,0,0,1,.163,1.4s-.034-1.224-.253-1.316a2.527,2.527,0,0,0-.416.45s.286.6.109.918c0,0-.109-.815-.2-.82a2.713,2.713,0,0,0-.4.907,1.967,1.967,0,0,1,.31-.962,1.084,1.084,0,0,0-.551.285s.056-.382.64-.415a2.758,2.758,0,0,1,.377-.435,2.364,2.364,0,0,0-.932.108,1.047,1.047,0,0,1,1.038-.2l.4-.333a3.479,3.479,0,0,0-1.089.011,1.325,1.325,0,0,1,1.2-.087l.444-.265a4.04,4.04,0,0,0-1.04-.09,1.6,1.6,0,0,1,1.17.018l.318-.142s-.478-.094-.618-.109-.147-.053-.147-.053a1.652,1.652,0,0,1,.9.1A4.1,4.1,0,0,0,728.558,130.646Z" transform="translate(-696.648 -92.516)" fill="#fff"/>
    <ellipse id="Ellipse_34" data-name="Ellipse 34" cx="2.715" cy="0.459" rx="2.715" ry="0.459" transform="translate(84.389 77.492)" fill="#fff" opacity="0.1"/>
    <ellipse id="Ellipse_35" data-name="Ellipse 35" cx="2.715" cy="0.459" rx="2.715" ry="0.459" transform="translate(39.464 64.256)" fill="#fff" opacity="0.1"/>
    <ellipse id="Ellipse_36" data-name="Ellipse 36" cx="2.715" cy="0.459" rx="2.715" ry="0.459" transform="translate(46.964 65.716)" fill="#fff" opacity="0.1"/>
    <path id="Path_1049" data-name="Path 1049" d="M278.572,753.45a.888.888,0,0,1,.113.228c.97,1.139,1.487,2.2.554,2.229-.868.025-1.909,1.578-2.159,1.97.008.03.018.06.029.09,0,0,1.222-2.031,2.218-2.059S279.665,754.672,278.572,753.45Z" transform="translate(-258.753 -680.547)" opacity="0.1"/>
    <path id="Path_1050" data-name="Path 1050" d="M300.957,761.154c0,.255-.028.462-.064.462s-.064-.207-.064-.462.035-.135.071-.135S300.957,760.9,300.957,761.154Z" transform="translate(-280.109 -687.327)" fill="#ffd037"/>
    <path id="Path_1051" data-name="Path 1051" d="M301.706,764.066c-.224.122-.419.2-.435.164s.15-.155.374-.277.136-.033.152,0S301.93,763.944,301.706,764.066Z" transform="translate(-280.504 -689.935)" fill="#ffd037"/>
    <path id="Path_1054" data-name="Path 1054" d="M252.65,761.154c0,.255.029.462.065.462s.064-.207.064-.462-.035-.135-.071-.135S252.65,760.9,252.65,761.154Z" transform="translate(-236.786 -687.327)" fill="#ffd037"/>
    <path id="Path_1058" data-name="Path 1058" d="M377.46,474.88a.093.093,0,0,0,.11.014A.39.39,0,0,1,377.46,474.88Z" transform="translate(-349.015 -430.056)" fill="url(#linear-gradient)"/>
    <path id="Path_1077" data-name="Path 1077" d="M376.831,471.7a.088.088,0,0,1-.1-.014A.35.35,0,0,0,376.831,471.7Z" transform="translate(-348.359 -427.188)" opacity="0.1"/>
    <ellipse id="Ellipse_39" data-name="Ellipse 39" cx="8.504" cy="8.504" rx="8.504" ry="8.504" transform="translate(42.076 38.415)" fill="#3da40a"/>
    <path id="Path_1090" data-name="Path 1090" d="M542.943,420.976a11.366,11.366,0,1,1-11.366-11.366A11.366,11.366,0,0,1,542.943,420.976Zm-12.68,6.017,8.432-8.432a.733.733,0,0,0,0-1.037l-1.037-1.03a.731.731,0,0,0-1.036,0l-6.877,6.877-3.211-3.218a.736.736,0,0,0-1.037,0l-1.037,1.044a.736.736,0,0,0,0,1.037L529.226,427a.733.733,0,0,0,1.037,0Z" transform="translate(-481.189 -375.178)" fill="#fff"/>
    <g id="Group_16" data-name="Group 16">
      <rect id="Rectangle_664" data-name="Rectangle 664" width="4.172" height="0.847" rx="0.423" transform="translate(42.452 29.251)" fill="#e6e8ec"/>
      <circle id="Ellipse_33" data-name="Ellipse 33" cx="0.481" cy="0.481" r="0.481" transform="translate(48.255 29.194)" fill="#e6e8ec"/>
      <circle id="Ellipse_40" data-name="Ellipse 40" cx="0.481" cy="0.481" r="0.481" transform="translate(50.255 29.194)" fill="#e6e8ec"/>
    </g>
    <g id="Group_17" data-name="Group 17" transform="translate(-19 30)">
      <rect id="Rectangle_664-2" data-name="Rectangle 664" width="4.172" height="0.847" rx="0.423" transform="translate(42.452 29.251)" fill="#e6e8ec"/>
      <circle id="Ellipse_33-2" data-name="Ellipse 33" cx="0.481" cy="0.481" r="0.481" transform="translate(48.255 29.194)" fill="#e6e8ec"/>
      <circle id="Ellipse_40-2" data-name="Ellipse 40" cx="0.481" cy="0.481" r="0.481" transform="translate(50.255 29.194)" fill="#e6e8ec"/>
    </g>
    <path id="Path_1091" data-name="Path 1091" d="M775.713,156.828s-6.027-.364-5.317,3.86a1.026,1.026,0,0,0,.535,1.085s.011-.313.619-.206a2.825,2.825,0,0,0,.655.031,1.365,1.365,0,0,0,.8-.327h0s1.694-.7,2.353-3.469c0,0,.487-.6.468-.759l-1.017.435a1.814,1.814,0,0,1,.072,1.344s-.033-1.317-.228-1.288c-.039.006-.528.254-.528.254a3.006,3.006,0,0,1,.147,2.207s.171-1.575-.333-2.114l-.716.418a3.161,3.161,0,0,1,.225,2.4,4.494,4.494,0,0,0-.376-2.3l-.649.506a3.091,3.091,0,0,1,.256,2.194s-.052-1.923-.4-2.068a3.986,3.986,0,0,0-.654.706s.449.945.17,1.443c0,0-.171-1.281-.311-1.288a4.253,4.253,0,0,0-.624,1.432,3.085,3.085,0,0,1,.487-1.512,1.7,1.7,0,0,0-.866.448s.088-.6,1.006-.653a3.938,3.938,0,0,1,.592-.683,3.71,3.71,0,0,0-1.465.169,1.645,1.645,0,0,1,1.633-.309l.641-.523a5.3,5.3,0,0,0-1.711.017,2.08,2.08,0,0,1,1.883-.136l.7-.417a6.4,6.4,0,0,0-1.634-.143,2.506,2.506,0,0,1,1.839.029l.5-.224s-.75-.147-.97-.171-.231-.084-.231-.084a2.6,2.6,0,0,1,1.41.157A6.341,6.341,0,0,0,775.713,156.828Z" transform="translate(-705.05 -95.057)" fill="#fff"/>
  </g>
</svg>
