<svg xmlns="http://www.w3.org/2000/svg" width="115.874" height="100" viewBox="0 0 115.874 100">
  <g id="undraw_dev_productivity_umsq" transform="translate(0 0)">
    <circle id="Ellipse_22" data-name="Ellipse 22" cx="10.669" cy="10.669" r="10.669" transform="translate(52.579 6.51)" fill="#a0616a"/>
    <path id="Path_1007" data-name="Path 1007" d="M573.551,260.562s2.01,15.154-1.082,16.855,18.4,1.856,18.4,1.856-4.794-13.144-2.629-17.164Z" transform="translate(-518.266 -238.048)" fill="#a0616a"/>
    <path id="Path_1008" data-name="Path 1008" d="M522.256,343.025l-1.788,8.14-3.78,17.221-.113.943-1.3,10.918L514.4,387.5l-.582,4.872c-3.537,1.818-6.1,3.073-6.1,3.073s-.221-1.106-.576-2.52a54.1,54.1,0,0,1-10.969,2.226c1.418,1.58,2.069,3.064,1.185,4.16-2.667,3.3-13.676-3.616-17.527-6.2a10.421,10.421,0,0,0-.1,1.866l-2.947-2.266.292-5.215.492-8.823.618-11.065a11.612,11.612,0,0,1-.489-1.455c-.9-3.209-2-9.618-2.838-14.992-.676-4.325-1.184-7.98-1.291-8.758-.015-.1-.022-.154-.022-.154l16.313-7.208c1.159,2.689,6.573,3.5,6.573,3.5a18.156,18.156,0,0,0,8-2.674Z" transform="translate(-433.957 -301.724)" fill="#d0cde1"/>
    <path id="Path_1009" data-name="Path 1009" d="M602.387,700.756s-.691.237-1.814.572a54.1,54.1,0,0,1-10.969,2.226c-3.352.215-6.184-.3-6.7-2.488a2.311,2.311,0,0,1,.779-2.349c2.049-1.9,7.4-2.58,11.644-2.813,1.2-.065,2.307-.1,3.23-.107,1.567-.02,2.594.012,2.594.012l.025.1Z" transform="translate(-527.386 -610.127)" fill="#a0616a"/>
    <path id="Path_1010" data-name="Path 1010" d="M558.791,112.476l-1.995-.8s4.171-4.592,9.975-4.193l-1.632-1.8s3.99-1.6,7.617,2.6A35.4,35.4,0,0,1,578.243,116h2.136l-.892,1.963,3.121,1.963-3.2-.353a10.976,10.976,0,0,1,.087,3.257,4.214,4.214,0,0,1-1.543,2.756h0s-2.474-5.121-2.474-5.92v2s-1.995-1.8-1.995-2.995l-1.088,1.4-.544-2.2-6.71,2.2,1.088-1.8-4.171.6,1.632-2.2s-4.715,2.6-4.9,4.792a10.544,10.544,0,0,1-1.562,4.277S553.531,115.471,558.791,112.476Z" transform="translate(-504.418 -105.389)" fill="#2f2e41"/>
    <path id="Path_1011" data-name="Path 1011" d="M716.076,427.465a37.6,37.6,0,0,1-7.044,4.874c-1.214.714-2.507,1.449-3.826,2.181-3.147,1.745-6.442,3.475-9.161,4.872-3.537,1.818-6.1,3.073-6.1,3.073s-.221-1.106-.576-2.52a20.9,20.9,0,0,0-1.94-5.425c-.026-.038-.052-.073-.078-.107-.218-.286-.437-.453-.653-.453l10.8-6.693,4.666-2.893-3.362-8.025-4.216-10.066,2.545-8.1,2.558-8.14h4.794s1.587,3.465,3.617,8.3c.3.723.617,1.476.936,2.253C713.208,410.751,718.414,424.934,716.076,427.465Z" transform="translate(-616.181 -348.744)" fill="#d0cde1"/>
    <path id="Path_1012" data-name="Path 1012" d="M526.522,699.622c-2.667,3.3-13.676-3.616-17.527-6.2-.839-.562-1.338-.917-1.338-.917l3.523-4.7,1.116-1.487s1,.53,2.474,1.391l.162.1c1.272.747,2.87,1.724,4.482,2.813a33.82,33.82,0,0,1,5.923,4.837C526.754,697.043,527.405,698.527,526.522,699.622Z" transform="translate(-463.118 -602.036)" fill="#a0616a"/>
    <path id="Path_1013" data-name="Path 1013" d="M406.655,430.782a6.933,6.933,0,0,0-1.175.1c-3.336.573-4.319,3.592-4.6,5.615a10.421,10.421,0,0,0-.1,1.866l-2.947-2.266-1.074-.826a19.568,19.568,0,0,1-6.883-4.389,34.6,34.6,0,0,1-4.636-5.5,48.488,48.488,0,0,1-3.587-6.152,4.524,4.524,0,0,1-.062-3.838l3.649-8.132,5.334-11.886q.059-.424.129-.83c1.058-6.065,3.891-8.758,3.891-8.758h2.165l1.448,8.758,1.8,10.88-1.261,4.112-2.913,9.5,2.784,3.024Z" transform="translate(-355.004 -345.102)" fill="#d0cde1"/>
    <path id="Path_1014" data-name="Path 1014" d="M544.751,490.11l1.851,2.159c.688-.131,1.406-.285,2.145-.458l-.532-1.7,1.3,1.516a175.539,175.539,0,0,0,17.545-5.673s-10.484.769-18.312-.941a7.449,7.449,0,0,0-8.448,4.208c-.826,1.888-.7,3.523,2.233,3.523a19.364,19.364,0,0,0,2.953-.278Z" transform="translate(-490.65 -429.78)" fill="#3da40a"/>
    <path id="Path_1015" data-name="Path 1015" d="M459.615,751.4v.881a1.935,1.935,0,0,1-.132.707,1.985,1.985,0,0,1-.141.29,1.95,1.95,0,0,1-1.676.952h-64.79a1.95,1.95,0,0,1-1.676-.952,1.976,1.976,0,0,1-.141-.29,1.936,1.936,0,0,1-.132-.707V751.4a1.948,1.948,0,0,1,1.949-1.949h3.735v-.411a.081.081,0,0,1,.081-.081h1.949a.081.081,0,0,1,.081.081v.411h1.217v-.411a.081.081,0,0,1,.081-.081h1.949a.081.081,0,0,1,.081.081v.411h1.219v-.411a.081.081,0,0,1,.081-.081H405.3a.081.081,0,0,1,.081.081v.411H406.6v-.411a.081.081,0,0,1,.081-.081h1.949a.081.081,0,0,1,.081.081v.411h1.217v-.411a.081.081,0,0,1,.081-.081h1.949a.081.081,0,0,1,.081.081v.411h1.219v-.411a.081.081,0,0,1,.081-.081h1.949a.081.081,0,0,1,.081.081v.411h1.217v-.411a.081.081,0,0,1,.081-.081h15.264a.081.081,0,0,1,.081.081v.411h1.219v-.411a.081.081,0,0,1,.081-.081h1.949a.082.082,0,0,1,.081.081v.411h1.217v-.411a.081.081,0,0,1,.081-.081h1.949a.081.081,0,0,1,.081.081v.411h1.217v-.411a.081.081,0,0,1,.081-.081h1.949a.081.081,0,0,1,.081.081v.411h1.219v-.411a.081.081,0,0,1,.081-.081h1.949a.081.081,0,0,1,.08.081v.411h1.219v-.411a.081.081,0,0,1,.081-.081h1.949a.081.081,0,0,1,.081.081v.411h1.217v-.411a.081.081,0,0,1,.081-.081H451.9a.081.081,0,0,1,.081.081v.411h5.683A1.948,1.948,0,0,1,459.615,751.4Z" transform="translate(-363.325 -655.579)" fill="#3f3d56"/>
    <rect id="Rectangle_631" data-name="Rectangle 631" width="106.352" height="0.29" transform="translate(8.778 97.403)" fill="#3f3d56"/>
    <path id="Path_1016" data-name="Path 1016" d="M469.06,507.212H444.911v-.5h-10.95v.5H409.712a1.634,1.634,0,0,0-1.634,1.634v33.068a1.634,1.634,0,0,0,1.634,1.634H469.06a1.633,1.633,0,0,0,1.633-1.634V508.846a1.634,1.634,0,0,0-1.634-1.634Z" transform="translate(-377.988 -448.486)" fill="#3f3d56"/>
    <circle id="Ellipse_23" data-name="Ellipse 23" cx="3.627" cy="3.627" r="3.627" transform="translate(57.819 66.644)" fill="none" stroke="#d0cde1" stroke-miterlimit="10" stroke-width="2"/>
    <circle id="Ellipse_24" data-name="Ellipse 24" cx="3.627" cy="3.627" r="3.627" transform="translate(56.658 67.95)" fill="#d0cde1"/>
    <rect id="Rectangle_632" data-name="Rectangle 632" width="4.063" height="4.063" transform="translate(11.672 95.938)" fill="#d0cde1"/>
    <path id="Path_1017" data-name="Path 1017" d="M292.136,744.612v4.933h4.933v-4.933Zm4.718,4.718h-4.505v-4.5h4.505Z" transform="translate(-278.867 -651.866)" fill="#3f3d56"/>
    <rect id="Rectangle_633" data-name="Rectangle 633" width="4.063" height="4.063" transform="translate(105.691 95.938)" fill="#d0cde1"/>
    <path id="Path_1018" data-name="Path 1018" d="M940.136,744.612v4.933h4.933v-4.933Zm4.718,4.718h-4.505v-4.5h4.505Z" transform="translate(-832.848 -651.866)" fill="#3f3d56"/>
    <circle id="Ellipse_25" data-name="Ellipse 25" cx="11.512" cy="11.512" r="11.512" transform="translate(2.211 10.364)" fill="#3da40a"/>
    <path id="Path_1019" data-name="Path 1019" d="M241.726,161.293a12.44,12.44,0,0,0-3.139,0,12.241,12.241,0,0,0-10.1,8.519,12.076,12.076,0,0,0-.53,3.143c-.005.148-.009.3-.009.448a12.221,12.221,0,0,0,12.209,12.209c.26,0,.52-.009.776-.024a12.077,12.077,0,0,0,1.79-.248,12.211,12.211,0,0,0-1-24.047Zm2.252,23.339h0a11.739,11.739,0,0,1-3.044.605c-.256.017-.516.026-.776.026A11.875,11.875,0,0,1,228.3,173.4c0-.15,0-.3.009-.448a11.86,11.86,0,1,1,15.673,11.677Z" transform="translate(-223.992 -153.097)" fill="#3f3d56"/>
    <rect id="Rectangle_634" data-name="Rectangle 634" width="0.349" height="2.442" transform="translate(15.99 9.143)" fill="#3f3d56"/>
    <rect id="Rectangle_635" data-name="Rectangle 635" width="0.349" height="2.442" transform="translate(8.148 12.536) rotate(-45)" fill="#3f3d56"/>
    <rect id="Rectangle_636" data-name="Rectangle 636" width="0.349" height="2.442" transform="translate(5.002 20.48) rotate(-90)" fill="#3f3d56"/>
    <rect id="Rectangle_637" data-name="Rectangle 637" width="0.349" height="2.442" transform="translate(8.395 28.322) rotate(-135)" fill="#3f3d56"/>
    <rect id="Rectangle_638" data-name="Rectangle 638" width="0.349" height="2.442" transform="translate(22.454 14.263) rotate(-135)" fill="#3f3d56"/>
    <rect id="Rectangle_639" data-name="Rectangle 639" width="0.349" height="2.442" transform="translate(24.886 20.481) rotate(-90)" fill="#3f3d56"/>
    <rect id="Rectangle_640" data-name="Rectangle 640" width="0.349" height="2.442" transform="translate(22.208 26.596) rotate(-45)" fill="#3f3d56"/>
    <rect id="Rectangle_641" data-name="Rectangle 641" width="0.349" height="2.442" transform="translate(15.99 29.027)" fill="#3f3d56"/>
    <path id="Path_1020" data-name="Path 1020" d="M307.48,239.506a.872.872,0,0,0-1.046,0,.9.9,0,0,0-.249.293.872.872,0,1,0,1.3-.293Zm-.523,1.221a.525.525,0,0,1-.523-.523.533.533,0,0,1,.092-.3.523.523,0,1,1,.431.82Z" transform="translate(-290.792 -219.898)" fill="#3f3d56"/>
    <rect id="Rectangle_642" data-name="Rectangle 642" width="3.14" height="3.14" transform="translate(14.595 5.132)" fill="#3f3d56"/>
    <ellipse id="Ellipse_26" data-name="Ellipse 26" cx="4.186" cy="1.483" rx="4.186" ry="1.483" transform="translate(11.979 2.69)" fill="#3f3d56"/>
    <rect id="Rectangle_643" data-name="Rectangle 643" width="1.047" height="5.93" transform="translate(15.641 13.678)" fill="#3f3d56"/>
    <rect id="Rectangle_644" data-name="Rectangle 644" width="32.791" height="0.349" transform="translate(0 31.984)" fill="#3f3d56"/>
    <path id="Path_1021" data-name="Path 1021" d="M278.733,644.143c.135,4.636-2.573,6.335-5.972,6.434l-.236,0q-.236,0-.468-.008c-3.074-.128-5.508-1.76-5.634-6.071-.13-4.462,5.407-10.258,5.823-10.687h0l.024-.025S278.6,639.508,278.733,644.143Z" transform="translate(-256.883 -557.124)" fill="#d0cde1"/>
    <path id="Path_1022" data-name="Path 1022" d="M292.487,649.879l2.159-3.211-2.155,3.557,0,.361q-.236,0-.468-.008l.107-4.645,0-.036,0-.007.01-.439-2.365-3.433,2.362,3.1.008.093.081-3.509-2.042-3.56,2.048,2.943-.021-7.27v0l.136,5.73,1.861-2.327-1.855,2.821.041,3.139,1.713-3.064-1.707,3.525.023,1.745,2.491-4.267L292.437,646Z" transform="translate(-276.855 -557.128)" fill="#3f3d56"/>
    <path id="Path_1023" data-name="Path 1023" d="M926.733,644.143c.135,4.636-2.573,6.335-5.972,6.434l-.236,0q-.236,0-.468-.008c-3.074-.128-5.508-1.76-5.634-6.071-.13-4.462,5.407-10.258,5.823-10.687h0l.024-.025S926.6,639.508,926.733,644.143Z" transform="translate(-810.864 -557.124)" fill="#d0cde1"/>
    <path id="Path_1024" data-name="Path 1024" d="M940.487,649.879l2.159-3.211-2.155,3.557,0,.361q-.236,0-.468-.008l.107-4.645,0-.036,0-.007.01-.439-2.365-3.433,2.362,3.1.008.093.081-3.509-2.043-3.56,2.048,2.943-.021-7.27v0l.136,5.73,1.862-2.327-1.855,2.821.041,3.139,1.713-3.064-1.706,3.525.022,1.745,2.491-4.267L940.437,646Z" transform="translate(-830.836 -557.128)" fill="#3f3d56"/>
  </g>
</svg>
