<svg id="notifications-24px" xmlns="http://www.w3.org/2000/svg" width="24" height="24" viewBox="0 0 24 24">
  <path id="Path_429" data-name="Path 429" d="M0,0H24V24H0Z" fill="none"/>
  <path id="Path_430" data-name="Path 430" d="M18,16V11c0-3.07-1.64-5.64-4.5-6.32V4a1.5,1.5,0,0,0-3,0v.68C7.63,5.36,6,7.92,6,11v5L4.71,17.29A1,1,0,0,0,5.41,19H18.58a1,1,0,0,0,.71-1.71Z" fill="#afafaf"/>
  <path id="Subtraction_1" data-name="Subtraction 1" d="M3,5A2,2,0,0,1,1,3H5A2,2,0,0,1,3,5Z" transform="translate(9 17)" fill="#ffc695"/>
</svg>
