<svg xmlns="http://www.w3.org/2000/svg" width="40" height="40" viewBox="0 0 40 40">
  <g id="Group_67" data-name="Group 67" transform="translate(-91 -143)">
    <circle id="Ellipse_8" data-name="Ellipse 8" cx="16.5" cy="16.5" r="16.5" transform="translate(91 143)" fill="#ffe0ab"/>
    <g id="center_focus_weak-24px" transform="translate(95 147)">
      <path id="Path_418" data-name="Path 418" d="M0,36H36V0H0Z" fill="none"/>
      <path id="Path_419" data-name="Path 419" d="M4.667,13A1.672,1.672,0,0,1,3,11.333v-5A3.343,3.343,0,0,1,6.333,3h5a1.667,1.667,0,0,1,0,3.333H8A1.672,1.672,0,0,0,6.333,8v3.333A1.672,1.672,0,0,1,4.667,13ZM6.333,28A1.672,1.672,0,0,0,8,29.667h3.333a1.667,1.667,0,0,1,0,3.333h-5A3.343,3.343,0,0,1,3,29.667v-5a1.667,1.667,0,1,1,3.333,0Zm23.333,5h-5a1.667,1.667,0,0,1,0-3.333H28A1.672,1.672,0,0,0,29.667,28V24.667a1.667,1.667,0,1,1,3.333,0v5A3.343,3.343,0,0,1,29.667,33Zm0-25A1.672,1.672,0,0,0,28,6.333H24.667a1.667,1.667,0,0,1,0-3.333h5A3.343,3.343,0,0,1,33,6.333v5a1.667,1.667,0,0,1-3.333,0ZM18,24.667A6.667,6.667,0,1,1,24.667,18,6.665,6.665,0,0,1,18,24.667Zm0-10A3.333,3.333,0,1,0,21.333,18,3.343,3.343,0,0,0,18,14.667Z" fill="#afafaf"/>
    </g>
  </g>
</svg>
