<svg xmlns="http://www.w3.org/2000/svg" width="101.608" height="101.935" viewBox="0 0 101.608 101.935">
  <g id="Group_33" data-name="Group 33" transform="translate(-128.824 -235.161)">
    <path id="Path_433" data-name="Path 433" d="M-11.474,10.066A4.451,4.451,0,0,1-16,5.721V-7.311A8.9,8.9,0,0,1-6.948-16H6.63a4.451,4.451,0,0,1,4.526,4.344A4.451,4.451,0,0,1,6.63-7.311H-2.422A4.451,4.451,0,0,0-6.948-2.967V5.721A4.451,4.451,0,0,1-11.474,10.066ZM-6.948,72.9a4.451,4.451,0,0,0,4.526,4.344H6.63a4.348,4.348,0,1,1,0,8.689H-6.948A8.9,8.9,0,0,1-16,77.246V64.213a4.451,4.451,0,0,1,4.526-4.344,4.451,4.451,0,0,1,4.526,4.344Zm83.5,13.033H62.978a4.348,4.348,0,1,1,0-8.689H72.03A4.451,4.451,0,0,0,76.556,72.9V64.213a4.53,4.53,0,0,1,9.052,0V77.246A8.9,8.9,0,0,1,76.556,85.935Zm0-88.9A4.451,4.451,0,0,0,72.03-7.311H62.978a4.451,4.451,0,0,1-4.526-4.344A4.451,4.451,0,0,1,62.978-16H76.556a8.9,8.9,0,0,1,9.052,8.689V5.721a4.53,4.53,0,0,1-9.052,0Z" transform="translate(144.824 251.161)" fill="#474747"/>
    <path id="Path_439" data-name="Path 439" d="M4.241,0A4.156,4.156,0,0,1,8.483,4.065v22.36a4.156,4.156,0,0,1-4.241,4.065A4.156,4.156,0,0,1,0,26.426V4.065A4.156,4.156,0,0,1,4.241,0Z" transform="translate(191.518 273.733)" fill="#ffb12a"/>
    <path id="Subtraction_2" data-name="Subtraction 2" d="M4.242,61A4.254,4.254,0,0,1,0,56.744V19.86a4.248,4.248,0,0,1,.041-.588A20.5,20.5,0,1,1,35,35.115,20.451,20.451,0,0,1,8.483,37.237V56.744A4.253,4.253,0,0,1,4.242,61ZM20.5,8.978A11.592,11.592,0,1,0,32.053,20.57,11.585,11.585,0,0,0,20.5,8.978Z" transform="translate(159 256)" fill="#ffb12a"/>
  </g>
</svg>
